<svg width="928" height="600" viewBox="0,0,928,600" style="max-width: 100%; height: auto;" xmlns="http://www.w3.org/2000/svg" xmlns:xlink="http://www.w3.org/1999/xlink"><g transform="translate(0,570)" fill="none" font-size="10" font-family="sans-serif" text-anchor="middle"><g class="tick" opacity="1" transform="translate(63,0)"><line stroke="currentColor" y2="6"/><text fill="currentColor" y="9" dy="0.71em">July</text></g><g class="tick" opacity="1" transform="translate(107,0)"><line stroke="currentColor" y2="6"/><text fill="currentColor" y="9" dy="0.71em">October</text></g><g class="tick" opacity="1" transform="translate(151,0)"><line stroke="currentColor" y2="6"/><text fill="currentColor" y="9" dy="0.71em">2014</text></g><g class="tick" opacity="1" transform="translate(194,0)"><line stroke="currentColor" y2="6"/><text fill="currentColor" y="9" dy="0.71em">April</text></g><g class="tick" opacity="1" transform="translate(237,0)"><line stroke="currentColor" y2="6"/><text fill="currentColor" y="9" dy="0.71em">July</text></g><g class="tick" opacity="1" transform="translate(281,0)"><line stroke="currentColor" y2="6"/><text fill="currentColor" y="9" dy="0.71em">October</text></g><g class="tick" opacity="1" transform="translate(324,0)"><line stroke="currentColor" y2="6"/><text fill="currentColor" y="9" dy="0.71em">2015</text></g><g class="tick" opacity="1" transform="translate(367,0)"><line stroke="currentColor" y2="6"/><text fill="currentColor" y="9" dy="0.71em">April</text></g><g class="tick" opacity="1" transform="translate(411,0)"><line stroke="currentColor" y2="6"/><text fill="currentColor" y="9" dy="0.71em">July</text></g><g class="tick" opacity="1" transform="translate(454,0)"><line stroke="currentColor" y2="6"/><text fill="currentColor" y="9" dy="0.71em">October</text></g><g class="tick" opacity="1" transform="translate(498,0)"><line stroke="currentColor" y2="6"/><text fill="currentColor" y="9" dy="0.71em">2016</text></g><g class="tick" opacity="1" transform="translate(541,0)"><line stroke="currentColor" y2="6"/><text fill="currentColor" y="9" dy="0.71em">April</text></g><g class="tick" opacity="1" transform="translate(585,0)"><line stroke="currentColor" y2="6"/><text fill="currentColor" y="9" dy="0.71em">July</text></g><g class="tick" opacity="1" transform="translate(629,0)"><line stroke="currentColor" y2="6"/><text fill="currentColor" y="9" dy="0.71em">October</text></g><g class="tick" opacity="1" transform="translate(672,0)"><line stroke="currentColor" y2="6"/><text fill="currentColor" y="9" dy="0.71em">2017</text></g><g class="tick" opacity="1" transform="translate(715,0)"><line stroke="currentColor" y2="6"/><text fill="currentColor" y="9" dy="0.71em">April</text></g><g class="tick" opacity="1" transform="translate(758,0)"><line stroke="currentColor" y2="6"/><text fill="currentColor" y="9" dy="0.71em">July</text></g><g class="tick" opacity="1" transform="translate(802,0)"><line stroke="currentColor" y2="6"/><text fill="currentColor" y="9" dy="0.71em">October</text></g><g class="tick" opacity="1" transform="translate(846,0)"><line stroke="currentColor" y2="6"/><text fill="currentColor" y="9" dy="0.71em">2018</text></g><g class="tick" opacity="1" transform="translate(889,0)"><line stroke="currentColor" y2="6"/><text fill="currentColor" y="9" dy="0.71em">April</text></g></g><g transform="translate(40,0)" fill="none" font-size="10" font-family="sans-serif" text-anchor="end"><g class="tick" opacity="1" transform="translate(0,521)"><line stroke="currentColor" x2="-6"/><line stroke="currentColor" x2="868" stroke-opacity="0.1"/><text fill="currentColor" x="-9" dy="0.32em">60</text></g><g class="tick" opacity="1" transform="translate(0,453)"><line stroke="currentColor" x2="-6"/><line stroke="currentColor" x2="868" stroke-opacity="0.1"/><text fill="currentColor" x="-9" dy="0.32em">70</text></g><g class="tick" opacity="1" transform="translate(0,394)"><line stroke="currentColor" x2="-6"/><line stroke="currentColor" x2="868" stroke-opacity="0.1"/><text fill="currentColor" x="-9" dy="0.32em">80</text></g><g class="tick" opacity="1" transform="translate(0,342)"><line stroke="currentColor" x2="-6"/><line stroke="currentColor" x2="868" stroke-opacity="0.1"/><text fill="currentColor" x="-9" dy="0.32em">90</text></g><g class="tick" opacity="1" transform="translate(0,295)"><line stroke="currentColor" x2="-6"/><line stroke="currentColor" x2="868" stroke-opacity="0.1"/><text fill="currentColor" x="-9" dy="0.32em">100</text></g><g class="tick" opacity="1" transform="translate(0,253)"><line stroke="currentColor" x2="-6"/><line stroke="currentColor" x2="868" stroke-opacity="0.1"/><text fill="currentColor" x="-9" dy="0.32em">110</text></g><g class="tick" opacity="1" transform="translate(0,214)"><line stroke="currentColor" x2="-6"/><line stroke="currentColor" x2="868" stroke-opacity="0.1"/><text fill="currentColor" x="-9" dy="0.32em">120</text></g><g class="tick" opacity="1" transform="translate(0,178)"><line stroke="currentColor" x2="-6"/><line stroke="currentColor" x2="868" stroke-opacity="0.1"/><text fill="currentColor" x="-9" dy="0.32em">130</text></g><g class="tick" opacity="1" transform="translate(0,146)"><line stroke="currentColor" x2="-6"/><line stroke="currentColor" x2="868" stroke-opacity="0.1"/><text fill="currentColor" x="-9" dy="0.32em">140</text></g><g class="tick" opacity="1" transform="translate(0,115)"><line stroke="currentColor" x2="-6"/><line stroke="currentColor" x2="868" stroke-opacity="0.1"/><text fill="currentColor" x="-9" dy="0.32em">150</text></g><g class="tick" opacity="1" transform="translate(0,86)"><line stroke="currentColor" x2="-6"/><line stroke="currentColor" x2="868" stroke-opacity="0.1"/><text fill="currentColor" x="-9" dy="0.32em">160</text></g><g class="tick" opacity="1" transform="translate(0,59)"><line stroke="currentColor" x2="-6"/><line stroke="currentColor" x2="868" stroke-opacity="0.1"/><text fill="currentColor" x="-9" dy="0.32em">170</text></g><g class="tick" opacity="1" transform="translate(0,34)"><line stroke="currentColor" x2="-6"/><line stroke="currentColor" x2="868" stroke-opacity="0.1"/><text fill="currentColor" x="-9" dy="0.32em">180</text></g><g class="tick" opacity="1" transform="translate(0,10)"><line stroke="currentColor" x2="-6"/><line stroke="currentColor" x2="868" stroke-opacity="0.1"/><text fill="currentColor" x="-9" dy="0.32em">190</text><text fill="currentColor" x="3" dy="0.32em" text-anchor="start" font-weight="bold">↑ Daily close ($)</text></g></g><g fill="none" stroke-width="1.5" stroke-linejoin="round" stroke-linecap="round"><path stroke="#aaa" d="M40,486L40,497L41,512L41,506L42,508L43,498L44,501L44,499L45,499L45,496L47,499L48,496L48,489L49,491L50,490L50,491L51,496L51,502L52,499L53,502L54,503L54,509L55,505L55,511L57,509L57,509L58,518L58,525L59,528L60,540L60,540L61,545L61,550L62,547L63,533L64,523L64,521L65,524L67,527L67,519L68,521L68,514L69,515L70,514L70,511L71,511L71,509L72,516L73,515L74,522L74,500L75,502L75,500L77,493L77,488L78,488L78,484L79,479L80,472L80,476L81,476L81,480L82,486L83,474L84,453L84,445L85,446L85,442L87,437L87,443L88,442L88,441L89,443L90,441L90,454L91,452L91,451L92,456L94,454L94,445L95,448L95,446L97,439L97,449L98,474L98,469L99,476L100,491L100,486L101,477L101,469L102,474L103,452L104,454L104,461L105,456L105,460L107,465L107,455L108,453L108,459L109,459L110,455L110,461L111,456L111,453L112,450L113,448L114,445L114,443L115,440L115,436L117,426L117,427L118,422L118,417L119,422L120,418L120,430L121,423L121,424L122,427L123,421L124,422L124,426L125,433L125,426L127,427L127,427L128,426L128,420L129,422L130,428L130,427L131,431L131,426L132,427L133,423L134,415L134,405L135,397L137,401L137,389L138,390L138,388L139,394L140,389L140,389L141,393L141,393L142,398L143,396L144,398L144,401L145,406L145,403L147,386L147,388L148,391L149,394L150,398L150,393L151,399L152,409L153,407L154,410L154,407L155,413L155,416L157,413L157,405L158,396L158,398L158,409L160,403L161,401L161,397L162,405L163,401L164,438L164,443L165,444L165,444L167,443L167,436L168,433L168,433L168,427L170,419L170,413L171,413L171,406L172,407L174,405L174,412L175,417L175,422L177,420L177,425L178,429L178,420L178,421L180,420L180,417L181,416L181,418L182,418L183,417L184,413L184,413L185,418L185,423L187,421L187,417L188,417L188,419L188,416L190,411L190,406L191,410L191,412L192,413L193,413L194,409L194,408L195,411L195,417L197,424L197,424L198,418L198,424L198,427L200,425L200,428L201,428L201,422L203,417L204,417L204,423L205,388L205,384L207,368L207,369L208,371L208,370L208,369L210,362L210,367L211,369L211,372L212,374L213,369L214,368L214,368L215,372L215,365L217,360L217,360L218,359L218,358L218,353L220,345L221,346L221,338L222,339L223,342L224,336L224,331L225,329L225,331L227,324L227,321L227,323L228,330L228,335L230,331L230,331L231,331L231,332L232,337L233,337L234,340L234,340L235,337L235,332L237,327L237,325L237,325L238,322L240,313L240,316L241,316L241,317L242,317L243,311L244,316L244,319L245,327L245,320L247,323L247,319L247,307L248,308L248,305L250,299L250,302L251,303L251,315L252,312L253,315L254,317L254,318L255,320L255,319L257,313L257,313L257,307L258,306L258,304L260,299L260,292L261,292L261,292L262,289L263,288L264,291L264,285L265,285L265,284L267,280L267,300L268,303L268,299L270,302L270,304L271,290L271,289L272,288L273,288L274,291L274,288L275,287L275,291L277,290L277,283L277,287L278,304L278,291L280,294L280,291L281,298L281,295L282,296L283,296L284,300L284,291L285,290L285,292L287,296L287,300L287,306L288,312L288,305L290,296L290,284L291,282L291,274L292,272L293,273L294,266L294,263L295,265L295,261L296,255L297,258L297,257L298,258L298,257L300,257L300,254L301,248L301,241L302,236L303,237L304,231L304,234L305,228L305,227L306,219L307,223L307,218L308,218L310,233L310,234L311,229L311,231L312,233L313,243L314,236L314,245L315,246L315,254L316,260L317,266L317,255L318,242L318,245L320,241L320,242L321,244L322,237L323,237L324,242L324,251L325,255L326,268L327,268L327,262L328,245L328,244L330,256L330,252L331,253L331,266L332,269L334,258L334,254L335,243L335,241L336,240L337,256L337,232L338,218L338,225L340,219L340,219L341,216L341,214L342,218L343,215L344,207L344,196L345,191L345,189L347,186L347,183L348,184L348,180L350,168L350,171L351,183L351,177L352,184L353,182L354,181L354,183L355,191L355,190L356,188L357,198L357,206L358,198L358,201L360,196L360,189L361,184L361,187L362,193L363,188L364,190L364,202L365,199L365,202L366,191L367,198L367,198L368,195L370,188L370,192L371,194L371,190L372,188L373,189L374,191L374,190L375,192L375,197L376,187L377,189L377,183L378,180L378,177L380,169L380,177L381,183L381,195L382,182L383,183L384,193L384,196L385,195L385,187L386,191L387,193L387,192L388,182L388,183L390,178L390,178L391,178L391,174L392,170L394,180L394,172L395,172L395,177L396,177L397,179L397,178L398,181L398,183L400,186L400,187L401,182L401,183L402,188L403,189L404,187L404,188L405,186L405,190L406,187L407,189L407,185L408,187L408,190L410,197L410,194L411,190L411,191L413,192L414,193L414,205L415,214L415,202L416,193L417,194L417,189L418,184L418,180L420,171L420,176L421,195L421,195L422,198L423,204L424,202L424,203L425,205L425,209L426,220L427,234L427,231L428,232L428,231L430,215L430,239L431,232L431,232L432,229L433,225L434,227L434,233L435,242L435,270L436,281L437,279L437,254L438,241L438,239L440,242L440,262L441,243L441,251L442,255L444,243L444,252L444,242L445,236L446,232L447,228L447,227L448,237L448,239L450,232L450,239L451,235L451,233L452,234L453,243L454,256L454,251L454,254L455,251L456,249L457,247L457,249L458,255L458,244L460,246L460,245L461,252L461,245L462,248L463,246L464,238L464,238L464,231L465,217L466,232L467,235L467,217L468,212L468,216L470,210L470,205L471,207L471,211L472,210L473,212L474,226L474,229L474,230L475,243L476,236L477,238L477,224L478,218L478,217L480,222L480,218L481,221L482,222L483,220L484,224L484,228L484,232L485,218L486,220L487,221L487,230L488,228L488,240L490,243L490,251L491,247L491,257L492,269L493,263L494,264L494,258L494,261L496,266L497,258L497,263L498,272L500,272L500,283L501,292L501,311L502,309L503,301L504,295L504,307L504,297L505,308L507,310L507,309L508,312L508,289L510,297L510,295L511,325L511,322L512,307L513,311L513,320L514,311L514,310L515,322L516,318L517,318L517,321L518,324L518,322L520,310L521,303L521,312L522,313L523,309L523,319L524,312L524,309L525,309L526,310L527,292L527,291L528,288L528,282L530,287L530,290L531,290L531,290L532,285L533,284L533,275L534,269L534,270L535,269L536,269L537,266L537,268L538,270L540,272L540,262L541,254L541,257L542,253L543,248L543,253L544,249L544,258L545,258L546,257L547,251L547,244L548,244L548,253L550,263L550,265L551,264L551,269L552,270L553,273L553,276L554,305L554,318L555,323L556,324L557,317L557,321L558,326L558,328L560,328L560,325L561,329L561,340L562,339L563,323L563,325L564,320L564,321L565,317L566,311L567,304L567,296L568,293L568,293L570,295L571,302L571,305L572,304L573,301L573,299L574,300L574,296L575,300L576,307L577,306L577,308L578,306L578,316L580,317L580,313L581,315L581,312L582,325L583,332L583,324L584,320L584,315L585,313L587,318L587,315L588,313L588,310L590,308L590,306L591,309L591,300L592,300L593,296L593,295L594,295L594,297L595,301L596,307L597,310L597,282L598,276L598,277L600,269L600,275L601,270L601,270L602,263L603,259L603,257L604,261L604,261L605,260L606,255L607,255L607,256L608,256L608,255L610,259L610,257L611,261L611,262L612,265L613,266L613,269L614,269L614,266L615,262L617,262L617,259L618,271L618,281L620,271L620,261L621,245L621,231L622,233L623,238L623,238L624,238L624,234L625,242L626,241L627,240L627,237L628,244L628,240L630,242L630,241L631,240L631,237L632,236L633,229L633,228L634,224L634,225L635,223L636,223L637,223L637,225L638,225L638,227L640,223L640,220L641,231L641,235L642,238L643,238L643,247L644,246L644,253L645,257L646,251L647,248L647,249L648,262L648,259L650,270L650,264L651,253L651,253L652,252L653,246L653,245L654,248L655,245L656,246L657,247L657,250L658,255L658,253L660,256L660,253L661,248L661,244L661,237L663,239L663,232L664,232L664,230L665,229L666,227L667,225L667,225L668,228L668,227L670,224L671,226L671,226L671,230L673,228L674,229L674,227L675,222L676,218L677,217L677,215L678,217L678,217L680,214L681,214L681,215L681,214L683,214L683,214L684,207L684,207L685,207L686,208L687,209L687,183L688,183L688,182L690,177L690,173L691,172L691,170L691,171L693,167L693,162L694,160L694,161L695,159L697,156L697,155L698,157L698,156L700,155L700,155L701,146L701,149L701,146L703,148L703,147L704,149L704,150L705,148L706,148L707,149L707,144L708,143L708,146L710,141L710,146L711,141L711,143L711,144L713,143L713,134L714,133L714,133L715,134L716,134L717,131L717,133L718,134L718,135L720,136L720,140L721,140L721,142L723,140L723,142L724,143L724,138L725,138L726,134L727,131L727,134L728,134L728,134L730,125L730,122L730,124L731,125L731,118L733,106L733,103L734,105L734,103L735,97L736,98L737,99L737,114L738,108L738,106L740,103L740,104L740,105L741,104L741,104L743,104L744,107L744,106L745,99L746,103L747,102L747,99L748,100L748,118L750,129L750,125L750,130L751,132L751,138L753,126L753,130L754,127L754,128L755,126L756,127L757,134L757,127L758,134L758,133L760,135L760,133L761,137L761,133L763,130L763,128L764,128L764,122L765,118L766,116L767,115L767,112L768,114L768,114L770,109L770,107L770,105L771,113L771,116L773,119L773,115L774,94L774,99L775,96L776,90L777,86L777,83L778,99L778,93L780,87L780,82L780,84L781,92L781,93L783,94L783,87L784,86L784,88L785,87L786,82L787,78L787,77L788,75L788,75L790,81L790,81L791,83L791,90L793,82L793,84L794,87L794,91L795,87L796,90L797,90L797,97L798,105L798,109L800,113L800,106L800,103L801,105L801,103L803,104L803,102L804,105L804,99L805,100L806,98L807,98L807,96L808,98L808,95L809,87L810,85L810,87L811,98L811,97L813,97L813,94L814,96L814,94L815,78L816,68L817,62L817,68L818,64L818,53L819,48L820,47L820,43L821,44L821,47L823,49L823,56L824,62L824,57L825,59L826,59L827,51L827,47L828,47L829,49L830,51L830,61L831,55L831,57L833,60L833,60L834,62L834,61L835,61L836,53L837,55L837,54L838,54L838,49L839,43L840,48L840,48L841,47L841,47L843,58L844,58L844,57L845,61L847,54L847,54L848,52L848,47L849,48L850,48L850,48L851,46L851,41L853,44L854,36L854,36L855,38L856,42L857,41L857,49L858,57L858,56L859,65L860,67L860,66L861,65L861,85L863,96L863,78L864,88L864,100L865,96L866,79L867,74L867,66L868,52L868,53L870,55L870,57L871,53L871,45L873,37L873,38L874,39L874,47L875,44L876,42L877,42L877,46L878,42L878,34L879,30L880,34L880,38L881,37L881,39L883,46L883,46L884,56L884,62L885,73L886,52L887,64L887,69L888,65L889,68L890,64L890,55L891,52L891,64L893,59L893,51L894,53L894,49L895,47L896,44L897,38L897,39L898,52L898,71L899,72L900,78L900,76L901,75L901,80L903,72L903,62L904,43L904,42L905,25L906,22L907,19L907,16L908,10L908,13"/><path stroke="green" d="M68,584L69,582L70,582L70,582L71,582L71,582L72,582L73,582L74,582L74,582L75,581L75,581L77,582L77,582L78,582L78,583L79,586L80,590L80,594L81,597L81,599L82,600L83,603L84,611L84,620L85,628L85,636L87,644L87,648L88,651L88,651L89,649L90,646L90,639L91,631L91,627L92,623L94,619L94,616L95,610L95,607L97,603L97,598L98,593L98,587L99,583L100,579L100,575L101,569L101,562L102,552L103,548L104,542L104,537L105,533L105,530L107,527L107,524L108,522L108,521L109,519L110,517L110,515L111,510L111,508L112,508L113,508L114,508L114,508L115,508L115,509L117,512L117,514L118,517L118,521L119,524L120,528L120,529L121,530L121,532L122,533L123,535L124,536L124,537L125,537L125,535L127,534L127,530L128,523L128,518L129,513L130,510L130,505L131,504L131,502L132,500L133,498L134,496L134,494L135,495L137,496L137,497L138,497L138,498L139,495L140,494L140,493L141,491L141,489L142,486L143,484L144,482L144,480L145,479L145,478L147,479L147,480L148,480L149,480L150,479L150,478L151,477L152,475L153,474L154,473L154,471L155,468L155,466L157,464L157,462L158,460L158,458L158,456L160,453L161,450L161,445L162,441L163,437L164,442L164,450L165,458L165,465L167,472L167,476L168,478L168,481L168,482L170,482L170,481L171,481L171,480L172,480L174,480L174,480L175,480L175,481L177,481L177,480L178,479L178,478L178,477L180,477L180,475L181,474L181,474L182,474L183,474L184,474L184,474L185,474L185,474L187,474L187,472L188,471L188,471L188,470L190,468L190,467L191,466L191,465L192,463L193,460L194,456L194,452L195,447L195,444L197,442L197,440L198,439L198,440L198,441L200,442L200,442L201,443L201,442L203,442L204,442L204,442L205,448L205,454L207,465L207,473L208,479L208,484L208,489L210,495L210,498L211,501L211,502L212,504L213,506L214,507L214,507L215,507L215,508L217,509L217,509L218,510L218,511L218,512L220,515L221,516L221,519L222,520L223,521L224,522L224,523L225,523L225,520L227,518L227,517L227,513L228,506L228,498L230,488L230,478L231,468L231,459L232,448L233,433L234,428L234,424L235,422L235,421L237,419L237,418L237,416L238,415L240,415L240,413L241,411L241,407L242,404L243,401L244,397L244,392L245,387L245,383L247,379L247,375L247,372L248,370L248,370L250,370L250,371L251,371L251,369L252,368L253,367L254,367L254,366L255,366L255,366L257,366L257,365L257,364L258,364L258,364L260,364L260,365L261,365L261,364L262,363L263,361L264,359L264,359L265,359L265,360L267,361L267,359L268,359L268,358L270,358L270,357L271,356L271,357L272,356L273,356L274,353L274,351L275,349L275,347L277,346L277,347L277,346L278,347L278,347L280,346L280,344L281,343L281,341L282,338L283,335L284,331L284,327L285,324L285,321L287,319L287,318L287,319L288,321L288,323L290,323L290,323L291,324L291,326L292,328L293,330L294,333L294,337L295,339L295,342L296,345L297,347L297,349L298,350L298,352L300,354L300,356L301,359L301,363L302,368L303,372L304,376L304,379L305,384L305,387L306,390L307,392L307,395L308,397L310,395L310,393L311,390L311,387L312,383L313,379L314,376L314,372L315,366L315,360L316,351L317,342L317,332L318,324L318,319L320,314L320,310L321,306L322,303L323,300L324,298L324,295L325,295L326,297L327,299L327,300L328,298L328,297L330,297L330,297L331,297L331,300L332,303L334,304L334,305L335,305L335,304L336,303L337,302L337,300L338,300L338,299L340,301L340,303L341,306L341,308L342,310L343,313L344,317L344,323L345,330L345,336L347,340L347,344L348,348L348,353L350,361L350,367L351,369L351,372L352,373L353,375L354,376L354,375L355,372L355,366L356,359L357,353L357,350L358,346L358,340L360,335L360,329L361,320L361,309L362,300L363,292L364,285L364,279L365,272L365,260L366,254L367,252L367,247L368,244L370,240L370,237L371,234L371,229L372,225L373,223L374,223L374,223L375,223L375,223L376,223L377,223L377,223L378,220L378,219L380,221L380,221L381,221L381,221L382,221L383,221L384,221L384,222L385,222L385,222L386,220L387,219L387,218L388,218L388,218L390,219L390,219L391,220L391,221L392,222L394,221L394,221L395,220L395,220L396,219L397,217L397,217L398,216L398,216L400,215L400,215L401,214L401,214L402,214L403,213L404,213L404,212L405,211L405,212L406,212L407,212L407,212L408,211L408,211L410,213L410,213L411,213L411,214L413,213L414,213L414,215L415,221L415,223L416,223L417,223L417,223L418,223L418,223L420,224L420,224L421,224L421,223L422,224L423,225L424,225L424,226L425,227L425,229L426,233L427,242L427,248L428,255L428,260L430,261L430,267L431,272L431,276L432,279L433,281L434,283L434,286L435,290L435,302L436,315L437,327L437,331L438,334L438,335L440,337L440,341L441,343L441,345L442,348L444,350L444,352L444,352L445,351L446,349L447,345L447,340L448,332L448,324L450,321L450,317L451,314L451,311L452,307L453,304L454,302L454,300L454,300L455,300L456,301L457,301L457,301L458,299L458,299L460,299L460,298L461,298L461,297L462,296L463,295L464,295L464,292L464,286L465,282L466,281L467,281L467,284L468,288L468,288L470,291L470,295L471,296L471,298L472,298L473,299L474,299L474,299L474,299L475,300L476,300L477,300L477,300L478,300L478,300L480,301L480,301L481,300L482,298L483,296L484,293L484,290L484,288L485,287L486,284L487,281L487,279L488,277L488,276L490,274L490,275L491,275L491,278L492,285L493,290L494,295L494,299L494,303L496,308L497,310L497,313L498,318L500,322L500,327L501,334L501,346L502,356L503,363L504,369L504,377L504,383L505,391L507,400L507,407L508,413L508,414L510,415L510,416L511,421L511,426L512,427L513,427L513,429L514,429L514,429L515,427L516,423L517,418L517,415L518,411L518,409L520,405L521,401L521,397L522,395L523,393L523,392L524,390L524,385L525,380L526,376L527,368L527,362L528,358L528,356L530,355L530,355L531,356L531,357L532,358L533,360L533,363L534,367L534,371L535,373L536,376L537,378L537,381L538,383L540,384L540,384L541,386L541,389L542,391L543,393L543,394L544,395L544,392L545,390L546,388L547,385L547,382L548,379L548,376L550,374L550,369L551,364L551,359L552,352L553,346L553,340L554,339L554,342L555,349L556,357L557,362L557,369L558,377L558,384L560,391L560,397L561,404L561,413L562,422L563,427L563,432L564,436L564,440L565,443L566,444L567,446L567,446L568,445L568,444L570,443L571,441L571,439L572,436L573,433L573,431L574,428L574,425L575,420L576,413L577,404L577,398L578,393L578,389L580,384L580,380L581,375L581,369L582,365L583,367L583,367L584,367L584,367L585,366L587,366L587,365L588,364L588,362L590,361L590,359L591,355L591,350L592,349L593,348L593,347L594,347L594,346L595,346L596,346L597,346L597,348L598,352L598,355L600,361L600,364L601,368L601,371L602,376L603,381L603,386L604,390L604,393L605,395L606,398L607,401L607,402L608,402L608,402L610,401L610,401L611,397L611,391L612,386L613,382L613,378L614,374L614,369L615,364L617,359L617,355L618,351L618,347L620,341L620,338L621,336L621,337L622,338L623,336L623,334L624,330L624,324L625,314L626,313L627,312L627,311L628,310L628,309L630,308L630,307L631,306L631,307L632,307L633,308L633,309L634,311L634,312L635,314L636,315L637,316L637,317L638,317L638,316L640,316L640,315L641,313L641,311L642,307L643,303L643,300L644,298L644,297L645,296L646,292L647,284L647,279L648,279L648,281L650,287L650,291L651,292L651,293L652,294L653,294L653,295L654,295L655,295L656,296L657,296L657,296L658,297L658,298L660,300L660,300L661,301L661,300L661,300L663,299L663,298L664,297L664,296L665,295L666,295L667,295L667,295L668,294L668,293L670,294L671,295L671,296L671,296L673,297L674,297L674,297L675,297L676,298L677,299L677,300L678,299L678,298L680,294L681,291L681,290L681,289L683,288L683,287L684,288L684,288L685,287L686,287L687,285L687,289L688,290L688,291L690,292L690,294L691,295L691,298L691,300L693,302L693,305L694,309L694,311L695,313L697,316L697,318L698,319L698,319L700,319L700,319L701,319L701,318L701,317L703,314L703,311L704,307L704,304L705,301L706,297L707,294L707,290L708,286L708,281L710,276L710,270L711,265L711,258L711,250L713,244L713,237L714,231L714,222L715,212L716,208L717,205L717,201L718,198L718,195L720,192L720,189L721,185L721,182L723,180L723,178L724,176L724,174L725,172L726,171L727,170L727,168L728,167L728,165L730,166L730,167L730,168L731,168L731,169L733,174L733,178L734,181L734,183L735,187L736,189L737,192L737,191L738,191L738,191L740,191L740,191L740,190L741,189L741,189L743,190L744,189L744,189L745,189L746,189L747,188L747,188L748,187L748,185L750,183L750,181L750,179L751,178L751,177L753,174L753,173L754,171L754,170L755,169L756,168L757,168L757,167L758,168L758,170L760,171L760,172L761,175L761,176L763,177L763,177L764,178L764,177L765,175L766,174L767,174L767,174L768,174L768,173L770,172L770,172L770,172L771,171L771,170L773,170L773,169L774,170L774,171L775,172L776,174L777,177L777,182L778,182L778,184L780,185L780,188L780,188L781,188L781,187L783,187L783,187L784,187L784,186L785,184L786,184L787,182L787,181L788,179L788,177L790,172L790,169L791,165L791,161L793,157L793,153L794,151L794,148L795,145L796,143L797,140L797,138L798,137L798,138L800,139L800,138L800,135L801,132L801,129L803,130L803,131L804,132L804,133L805,133L806,133L807,133L807,133L808,134L808,134L809,133L810,133L810,133L811,134L811,134L813,134L813,134L814,134L814,134L815,134L816,136L817,139L817,141L818,143L818,149L819,156L820,162L820,168L821,173L821,177L823,180L823,182L824,182L824,183L825,183L826,182L827,180L827,178L828,177L829,176L830,174L830,171L831,168L831,165L833,161L833,157L834,154L834,150L835,147L836,143L837,139L837,135L838,133L838,131L839,129L840,123L840,117L841,111L841,104L843,95L844,86L844,82L845,81L847,80L847,78L848,77L848,77L849,77L850,77L850,76L851,76L851,77L853,77L854,79L854,80L855,81L856,81L857,80L857,80L858,80L858,81L859,82L860,84L860,85L861,87L861,93L863,102L863,105L864,110L864,118L865,125L866,127L867,129L867,129L868,129L868,129L870,129L870,129L871,128L871,129L873,129L873,130L874,131L874,131L875,131L876,131L877,132L877,132L878,132L878,133L879,134L880,135L880,136L881,136L881,136L883,136L883,135L884,135L884,135L885,136L886,136L887,136L887,137L888,137L889,137L890,137L890,137L891,133L891,127L893,125L893,120L894,112L894,103L895,99L896,96L897,94L897,94L898,94L898,97L899,99L900,103L900,106L901,109L901,112L903,113L903,114L904,114L904,114L905,116L906,119L907,123L907,126L908,130L908,133"/><path stroke="blue" d="M68,511L69,512L70,512L70,512L71,512L71,512L72,513L73,513L74,514L74,514L75,514L75,514L77,514L77,514L78,514L78,513L79,513L80,513L80,512L81,511L81,511L82,510L83,510L84,508L84,507L85,505L85,503L87,501L87,499L88,497L88,495L89,492L90,490L90,488L91,485L91,484L92,482L94,480L94,479L95,477L95,475L97,473L97,472L98,471L98,470L99,469L100,468L100,468L101,467L101,466L102,465L103,464L104,463L104,462L105,461L105,460L107,460L107,459L108,458L108,458L109,458L110,457L110,457L111,456L111,456L112,456L113,456L114,456L114,456L115,456L115,456L117,455L117,455L118,454L118,454L119,453L120,452L120,451L121,451L121,450L122,449L123,449L124,448L124,448L125,448L125,446L127,445L127,444L128,443L128,441L129,440L130,439L130,438L131,437L131,437L132,436L133,435L134,434L134,433L135,431L137,430L137,428L138,427L138,425L139,423L140,422L140,420L141,419L141,418L142,417L143,415L144,414L144,414L145,413L145,413L147,412L147,411L148,410L149,410L150,409L150,408L151,408L152,407L153,407L154,407L154,406L155,406L155,405L157,405L157,405L158,404L158,403L158,403L160,403L161,402L161,401L162,401L163,400L164,400L164,401L165,402L165,403L167,404L167,405L168,406L168,407L168,408L170,409L170,409L171,410L171,410L172,410L174,410L174,411L175,411L175,412L177,412L177,413L178,414L178,415L178,415L180,416L180,416L181,417L181,417L182,417L183,417L184,418L184,418L185,418L185,418L187,418L187,419L188,419L188,420L188,420L190,420L190,420L191,420L191,421L192,420L193,419L194,419L194,418L195,417L195,416L197,416L197,416L198,416L198,416L198,416L200,417L200,417L201,418L201,418L203,418L204,418L204,418L205,417L205,416L207,415L207,414L208,412L208,411L208,410L210,408L210,407L211,406L211,405L212,404L213,403L214,402L214,400L215,399L215,398L217,397L217,395L218,394L218,392L218,391L220,390L221,388L221,386L222,384L223,383L224,381L224,379L225,377L225,375L227,372L227,370L227,368L228,365L228,363L230,361L230,359L231,357L231,355L232,353L233,351L234,350L234,349L235,348L235,347L237,346L237,345L237,344L238,343L240,342L240,341L241,339L241,338L242,337L243,335L244,334L244,333L245,332L245,331L247,330L247,329L247,328L248,327L248,326L250,325L250,324L251,323L251,323L252,322L253,322L254,322L254,321L255,321L255,321L257,321L257,320L257,320L258,319L258,318L260,318L260,317L261,316L261,315L262,313L263,312L264,311L264,310L265,309L265,308L267,307L267,306L268,306L268,306L270,305L270,305L271,304L271,304L272,303L273,303L274,302L274,301L275,300L275,299L277,299L277,298L277,298L278,298L278,298L280,298L280,297L281,297L281,296L282,296L283,295L284,295L284,294L285,294L285,293L287,293L287,293L287,293L288,293L288,293L290,294L290,293L291,293L291,293L292,292L293,292L294,292L294,291L295,291L295,290L296,289L297,288L297,286L298,285L298,285L300,284L300,283L301,282L301,281L302,279L303,278L304,277L304,275L305,274L305,272L306,270L307,269L307,267L308,265L310,263L310,262L311,260L311,259L312,257L313,256L314,255L314,254L315,253L315,252L316,251L317,250L317,248L318,247L318,246L320,245L320,245L321,244L322,243L323,243L324,242L324,242L325,242L326,242L327,242L327,242L328,242L328,242L330,242L330,242L331,242L331,242L332,243L334,244L334,244L335,244L335,245L336,245L337,246L337,246L338,246L338,246L340,246L340,246L341,245L341,245L342,244L343,244L344,243L344,242L345,240L345,239L347,237L347,235L348,233L348,232L350,230L350,228L351,226L351,225L352,223L353,222L354,221L354,219L355,217L355,216L356,214L357,212L357,211L358,210L358,209L360,208L360,206L361,204L361,203L362,201L363,200L364,198L364,198L365,197L365,195L366,194L367,194L367,193L368,193L370,192L370,192L371,191L371,190L372,190L373,189L374,189L374,189L375,189L375,190L376,190L377,190L377,190L378,190L378,190L380,190L380,190L381,190L381,190L382,190L383,190L384,190L384,191L385,191L385,190L386,190L387,190L387,190L388,189L388,189L390,189L390,189L391,189L391,188L392,188L394,187L394,187L395,186L395,186L396,185L397,185L397,184L398,184L398,184L400,184L400,184L401,183L401,183L402,183L403,183L404,183L404,183L405,183L405,183L406,183L407,183L407,183L408,184L408,184L410,184L410,184L411,185L411,185L413,185L414,185L414,185L415,186L415,186L416,186L417,186L417,186L418,186L418,186L420,186L420,186L421,186L421,187L422,187L423,188L424,189L424,189L425,190L425,191L426,192L427,193L427,194L428,195L428,196L430,197L430,198L431,199L431,200L432,201L433,202L434,203L434,204L435,206L435,207L436,210L437,212L437,213L438,214L438,215L440,216L440,218L441,219L441,221L442,222L444,223L444,224L444,225L445,226L446,227L447,228L447,229L448,231L448,233L450,233L450,235L451,235L451,236L452,237L453,238L454,239L454,240L454,241L455,241L456,242L457,242L457,243L458,244L458,244L460,244L460,244L461,245L461,245L462,246L463,246L464,246L464,245L464,244L465,243L466,242L467,242L467,242L468,241L468,240L470,239L470,238L471,237L471,236L472,235L473,234L474,234L474,234L474,234L475,234L476,234L477,234L477,234L478,233L478,233L480,233L480,232L481,232L482,231L483,230L484,230L484,229L484,229L485,228L486,227L487,227L487,226L488,226L488,226L490,225L490,226L491,226L491,226L492,226L493,227L494,228L494,229L494,229L496,230L497,231L497,232L498,234L500,235L500,237L501,239L501,241L502,243L503,246L504,247L504,249L504,250L505,252L507,254L507,255L508,257L508,259L510,261L510,263L511,265L511,267L512,270L513,272L513,274L514,276L514,278L515,280L516,283L517,285L517,287L518,290L518,292L520,293L521,295L521,296L522,298L523,299L523,300L524,301L524,303L525,304L526,305L527,306L527,306L528,307L528,307L530,307L530,307L531,307L531,306L532,306L533,305L533,305L534,304L534,303L535,302L536,301L537,300L537,299L538,299L540,298L540,297L541,295L541,294L542,292L543,291L543,289L544,288L544,286L545,285L546,283L547,282L547,280L548,278L548,277L550,276L550,275L551,274L551,273L552,272L553,271L553,270L554,270L554,270L555,271L556,271L557,272L557,273L558,274L558,275L560,275L560,276L561,277L561,278L562,280L563,281L563,282L564,284L564,285L565,286L566,287L567,288L567,288L568,289L568,290L570,291L571,292L571,294L572,295L573,296L573,297L574,298L574,299L575,300L576,302L577,304L577,305L578,306L578,307L580,309L580,310L581,311L581,312L582,313L583,314L583,314L584,314L584,314L585,313L587,313L587,313L588,313L588,312L590,312L590,311L591,311L591,310L592,309L593,309L593,308L594,307L594,307L595,307L596,307L597,307L597,307L598,306L598,306L600,305L600,304L601,303L601,303L602,302L603,301L603,300L604,299L604,298L605,297L606,295L607,294L607,293L608,291L608,290L610,288L610,287L611,285L611,284L612,282L613,281L613,280L614,279L614,278L615,277L617,275L617,274L618,273L618,273L620,272L620,271L621,270L621,268L622,267L623,265L623,264L624,263L624,261L625,259L626,258L627,257L627,256L628,256L628,255L630,254L630,254L631,253L631,253L632,252L633,251L633,251L634,250L634,249L635,248L636,247L637,247L637,246L638,245L638,244L640,243L640,242L641,242L641,241L642,240L643,239L643,239L644,239L644,238L645,238L646,238L647,237L647,237L648,237L648,237L650,238L650,239L651,239L651,239L652,240L653,240L653,240L654,240L655,240L656,241L657,241L657,241L658,241L658,241L660,242L660,242L661,242L661,243L661,243L663,243L663,244L664,244L664,244L665,244L666,244L667,244L667,244L668,244L668,244L670,244L671,244L671,244L671,244L673,243L674,243L674,242L675,241L676,240L677,240L677,239L678,238L678,237L680,235L681,234L681,233L681,232L683,232L683,231L684,230L684,229L685,228L686,227L687,226L687,225L688,223L688,221L690,219L690,217L691,215L691,214L691,212L693,210L693,209L694,207L694,205L695,203L697,202L697,200L698,198L698,197L700,195L700,193L701,191L701,189L701,187L703,185L703,184L704,182L704,180L705,178L706,177L707,175L707,173L708,172L708,170L710,168L710,167L711,165L711,164L711,162L713,160L713,159L714,157L714,155L715,154L716,152L717,151L717,150L718,149L718,148L720,147L720,147L721,146L721,145L723,145L723,144L724,144L724,143L725,143L726,143L727,142L727,141L728,141L728,140L730,140L730,139L730,139L731,138L731,137L733,136L733,135L734,134L734,133L735,132L736,131L737,130L737,129L738,128L738,127L740,126L740,125L740,124L741,124L741,123L743,122L744,122L744,121L745,120L746,119L747,119L747,118L748,117L748,117L750,116L750,116L750,116L751,115L751,115L753,115L753,115L754,115L754,114L755,114L756,114L757,114L757,114L758,114L758,114L760,115L760,115L761,115L761,116L763,117L763,117L764,118L764,118L765,119L766,119L767,119L767,119L768,119L768,120L770,120L770,120L770,120L771,120L771,120L773,121L773,121L774,121L774,121L775,121L776,120L777,120L777,119L778,118L778,118L780,117L780,115L780,114L781,113L781,112L783,112L783,111L784,110L784,109L785,108L786,107L787,105L787,104L788,102L788,101L790,100L790,99L791,97L791,97L793,96L793,95L794,94L794,93L795,93L796,92L797,92L797,91L798,91L798,91L800,91L800,91L800,91L801,91L801,90L803,91L803,91L804,91L804,91L805,91L806,92L807,92L807,92L808,92L808,92L809,92L810,92L810,92L811,92L811,92L813,93L813,93L814,93L814,93L815,93L816,93L817,93L817,93L818,92L818,91L819,91L820,89L820,88L821,87L821,86L823,85L823,85L824,84L824,83L825,82L826,81L827,80L827,78L828,77L829,76L830,74L830,73L831,72L831,71L833,70L833,69L834,68L834,67L835,67L836,66L837,65L837,64L838,63L838,62L839,61L840,60L840,59L841,57L841,56L843,55L844,55L844,54L845,54L847,54L847,54L848,53L848,53L849,53L850,53L850,53L851,53L851,53L853,53L854,52L854,52L855,51L856,51L857,51L857,50L858,51L858,51L859,51L860,52L860,52L861,52L861,53L863,54L863,54L864,55L864,55L865,56L866,57L867,57L867,58L868,57L868,58L870,58L870,58L871,58L871,58L873,58L873,57L874,57L874,57L875,56L876,56L877,56L877,56L878,56L878,55L879,55L880,54L880,54L881,54L881,54L883,54L883,54L884,55L884,55L885,56L886,56L887,56L887,57L888,57L889,57L890,57L890,56L891,56L891,55L893,55L893,54L894,53L894,52L895,51L896,50L897,49L897,49L898,49L898,49L899,50L900,50L900,51L901,52L901,53L903,54L903,54L904,54L904,54L905,54L906,53L907,53L907,52L908,52L908,51"/><path stroke="red" d="M68,448L69,451L70,452L70,452L71,452L71,452L72,453L73,454L74,454L74,455L75,455L75,455L77,455L77,455L78,454L78,453L79,451L80,447L80,443L81,440L81,437L82,436L83,432L84,425L84,416L85,409L85,401L87,393L87,388L88,383L88,379L89,377L90,375L90,375L91,376L91,375L92,375L94,375L94,374L95,374L95,374L97,373L97,373L98,375L98,377L99,378L100,380L100,381L101,384L101,387L102,392L103,393L104,395L104,397L105,399L105,400L107,402L107,403L108,403L108,403L109,404L110,405L110,406L111,408L111,409L112,408L113,409L114,409L114,409L115,409L115,408L117,405L117,403L118,399L118,395L119,391L120,387L120,386L121,383L121,381L122,379L123,377L124,375L124,374L125,373L125,372L127,372L127,372L128,375L128,376L129,377L130,378L130,380L131,380L131,380L132,380L133,380L134,380L134,379L135,375L137,373L137,369L138,366L138,362L139,362L140,360L140,358L141,357L141,356L142,356L143,356L144,356L144,356L145,356L145,356L147,353L147,351L148,350L149,349L150,349L150,348L151,348L152,348L153,349L154,349L154,350L155,351L155,352L157,353L157,354L158,354L158,355L158,356L160,357L161,359L161,361L162,363L163,366L164,362L164,357L165,352L165,348L167,345L167,344L168,344L168,344L168,344L170,346L170,347L171,348L171,349L172,350L174,351L174,351L175,352L175,352L177,352L177,355L178,357L178,359L178,361L180,362L180,365L181,366L181,366L182,367L183,367L184,368L184,368L185,368L185,368L187,369L187,371L188,373L188,374L188,375L190,376L190,378L191,379L191,380L192,381L193,382L194,384L194,386L195,388L195,390L197,392L197,393L198,394L198,394L198,393L200,393L200,393L201,394L201,395L203,396L204,396L204,396L205,388L205,381L207,370L207,361L208,354L208,348L208,343L210,336L210,332L211,328L211,325L212,323L213,320L214,317L214,314L215,313L215,310L217,307L217,305L218,302L218,299L218,296L220,292L221,288L221,284L222,281L223,278L224,274L224,270L225,267L225,265L227,263L227,260L227,258L228,259L228,260L230,262L230,265L231,268L231,271L232,275L233,282L234,283L234,285L235,285L235,285L237,284L237,283L237,283L238,281L240,279L240,278L241,278L241,279L242,279L243,278L244,279L244,281L245,283L245,285L247,287L247,288L247,289L248,288L248,287L250,284L250,282L251,280L251,281L252,281L253,280L254,280L254,280L255,280L255,280L257,280L257,280L257,279L258,278L258,277L260,276L260,273L261,272L261,270L262,269L263,268L264,268L264,266L265,264L265,261L267,259L267,259L268,259L268,259L270,259L270,259L271,258L271,257L272,256L273,255L274,256L274,256L275,256L275,257L277,256L277,255L277,254L278,254L278,254L280,254L280,254L281,255L281,256L282,257L283,259L284,261L284,264L285,265L285,267L287,268L287,269L287,268L288,267L288,266L290,266L290,265L291,264L291,262L292,259L293,257L294,254L294,250L295,247L295,243L296,238L297,235L297,232L298,229L298,226L300,223L300,220L301,216L301,211L302,206L303,201L304,196L304,191L305,186L305,181L306,177L307,172L307,168L308,164L310,162L310,161L311,160L311,159L312,159L313,160L314,160L314,161L315,162L315,165L316,169L317,173L317,178L318,182L318,184L320,186L320,188L321,189L322,191L323,192L324,193L324,194L325,194L326,193L327,192L327,192L328,192L328,192L330,193L330,193L331,192L331,191L332,190L334,190L334,191L335,191L335,192L336,194L337,196L337,198L338,198L338,199L340,197L340,195L341,192L341,189L342,187L343,184L344,180L344,173L345,166L345,159L347,153L347,147L348,142L348,136L350,129L350,122L351,119L351,115L352,112L353,109L354,106L354,104L355,103L355,104L356,105L357,106L357,106L358,107L358,108L360,109L360,110L361,113L361,117L362,120L363,124L364,126L364,129L365,132L365,139L366,142L367,143L367,145L368,147L370,149L370,151L371,152L371,155L372,157L373,158L374,158L374,158L375,158L375,158L376,159L377,159L377,159L378,162L378,164L380,161L380,161L381,161L381,161L382,161L383,161L384,161L384,161L385,161L385,161L386,162L387,163L387,163L388,163L388,162L390,162L390,161L391,160L391,158L392,156L394,156L394,155L395,154L395,154L396,154L397,154L397,154L398,154L398,154L400,154L400,155L401,155L401,155L402,155L403,155L404,155L404,156L405,156L405,156L406,156L407,156L407,156L408,158L408,159L410,158L410,158L411,158L411,158L413,158L414,158L414,157L415,153L415,152L416,152L417,152L417,152L418,152L418,152L420,151L420,151L421,152L421,153L422,154L423,154L424,156L424,156L425,156L425,156L426,154L427,149L427,146L428,143L428,141L430,141L430,139L431,137L431,136L432,135L433,136L434,136L434,135L435,134L435,129L436,124L437,120L437,120L438,120L438,121L440,122L440,122L441,123L441,124L442,124L444,124L444,124L444,126L445,128L446,131L447,135L447,141L448,149L448,156L450,160L450,165L451,169L451,172L452,176L453,181L454,184L454,188L454,189L455,190L456,190L457,191L457,191L458,195L458,195L460,196L460,196L461,197L461,200L462,201L463,202L464,202L464,203L464,206L465,207L466,207L467,206L467,203L468,198L468,196L470,192L470,187L471,184L471,182L472,179L473,177L474,177L474,177L474,177L475,177L476,177L477,177L477,177L478,176L478,175L480,174L480,173L481,173L482,173L483,173L484,174L484,175L484,176L485,176L486,177L487,178L487,179L488,180L488,181L490,182L490,181L491,181L491,179L492,175L493,172L494,169L494,168L494,166L496,164L497,164L497,164L498,162L500,162L500,162L501,161L501,156L502,154L503,153L504,152L504,149L504,148L505,146L507,144L507,142L508,142L508,144L510,147L510,149L511,150L511,151L512,154L513,157L513,160L514,163L514,165L515,171L516,177L517,183L517,188L518,195L518,199L520,204L521,209L521,214L522,218L523,221L523,224L524,228L524,233L525,239L526,243L527,251L527,257L528,261L528,263L530,264L530,264L531,262L531,261L532,259L533,257L533,253L534,249L534,245L535,241L536,237L537,233L537,231L538,228L540,226L540,224L541,220L541,216L542,212L543,208L543,205L544,201L544,201L545,200L546,199L547,198L547,197L548,196L548,196L550,196L550,197L551,198L551,200L552,203L553,206L553,209L554,210L554,208L555,204L556,200L557,197L557,194L558,190L558,187L560,184L560,182L561,179L561,175L562,173L563,172L563,171L564,170L564,170L565,170L566,171L567,172L567,172L568,174L568,176L570,178L571,181L571,185L572,188L573,192L573,195L574,198L574,202L575,207L576,214L577,222L577,228L578,233L578,238L580,244L580,249L581,255L581,261L582,266L583,266L583,266L584,266L584,266L585,266L587,266L587,267L588,267L588,268L590,268L590,268L591,271L591,273L592,273L593,273L593,272L594,271L594,271L595,270L596,271L597,271L597,269L598,265L598,261L600,255L600,252L601,247L601,243L602,238L603,233L603,227L604,223L604,220L605,216L606,212L607,208L607,205L608,203L608,200L610,198L610,197L611,196L611,198L612,199L613,199L613,200L614,201L614,203L615,204L617,205L617,206L618,208L618,210L620,212L620,213L621,212L621,208L622,206L623,204L623,204L624,204L624,206L625,210L626,210L627,209L627,208L628,208L628,207L630,207L630,207L631,206L631,204L632,203L633,201L633,199L634,196L634,194L635,191L636,189L637,187L637,185L638,183L638,182L640,181L640,180L641,180L641,181L642,182L643,184L643,185L644,186L644,187L645,187L646,190L647,195L647,198L648,198L648,197L650,194L650,192L651,192L651,192L652,191L653,192L653,192L654,192L655,192L656,192L657,192L657,192L658,191L658,191L660,191L660,191L661,191L661,192L661,193L663,194L663,195L664,197L664,198L665,199L666,199L667,199L667,199L668,200L668,201L670,200L671,199L671,197L671,196L673,195L674,194L674,193L675,192L676,190L677,187L677,185L678,184L678,183L680,184L681,184L681,183L681,182L683,182L683,181L684,179L684,177L685,176L686,175L687,174L687,168L688,164L688,160L690,157L690,152L691,148L691,143L691,139L693,135L693,129L694,124L694,120L695,115L697,111L697,107L698,104L698,101L700,98L700,96L701,92L701,90L701,88L703,86L703,85L704,84L704,83L705,83L706,82L707,82L707,81L708,81L708,82L710,82L710,83L711,84L711,86L711,88L713,90L713,92L714,94L714,97L715,102L716,103L717,103L717,104L718,105L718,106L720,107L720,108L721,110L721,112L723,112L723,113L724,114L724,115L725,116L726,116L727,116L727,116L728,117L728,117L730,115L730,113L730,111L731,110L731,108L733,102L733,96L734,92L734,88L735,83L736,79L737,75L737,75L738,73L738,72L740,70L740,68L740,67L741,66L741,65L743,64L744,63L744,62L745,60L746,59L747,58L747,57L748,57L748,57L750,58L750,59L750,60L751,61L751,61L753,63L753,64L754,65L754,65L755,66L756,66L757,66L757,67L758,66L758,65L760,64L760,64L761,63L761,63L763,63L763,64L764,65L764,67L765,68L766,70L767,70L767,71L768,71L768,72L770,73L770,73L770,73L771,74L771,76L773,77L773,78L774,76L774,76L775,75L776,72L777,69L777,64L778,63L778,60L780,57L780,53L780,51L781,49L781,48L783,47L783,46L784,44L784,43L785,42L786,41L787,40L787,38L788,37L788,36L790,37L790,38L791,39L791,41L793,42L793,43L794,44L794,45L795,46L796,46L797,48L797,49L798,49L798,49L800,48L800,49L800,51L801,53L801,54L803,54L803,54L804,53L804,53L805,53L806,54L807,54L807,54L808,54L808,55L809,55L810,54L810,54L811,54L811,54L813,55L813,55L814,55L814,56L815,56L816,54L817,51L817,49L818,46L818,40L819,34L820,27L820,21L821,16L821,11L823,8L823,5L824,4L824,2L825,0L826,-1L827,-2L827,-3L828,-5L829,-6L830,-7L830,-7L831,-7L831,-6L833,-5L833,-4L834,-3L834,-2L835,-1L836,-1L837,1L837,2L838,2L838,2L839,2L840,4L840,7L841,10L841,13L843,19L844,25L844,28L845,29L847,29L847,30L848,31L848,31L849,30L850,31L850,31L851,32L851,31L853,30L854,27L854,25L855,24L856,23L857,23L857,23L858,23L858,23L859,22L860,21L860,21L861,20L861,16L863,10L863,8L864,5L864,0L865,-3L866,-4L867,-4L867,-4L868,-4L868,-4L870,-3L870,-3L871,-2L871,-3L873,-4L873,-5L874,-6L874,-7L875,-8L876,-8L877,-9L877,-9L878,-10L878,-11L879,-13L880,-14L880,-15L881,-15L881,-15L883,-15L883,-14L884,-13L884,-12L885,-11L886,-11L887,-11L887,-11L888,-11L889,-11L890,-11L890,-11L891,-10L891,-7L893,-6L893,-4L894,0L894,5L895,7L896,9L897,9L897,8L898,8L898,7L899,5L900,3L900,2L901,2L901,1L903,2L903,2L904,2L904,2L905,-1L906,-5L907,-8L907,-11L908,-15L908,-18"/></g></svg>